<?xml version="1.0" encoding="UTF-8"?>
<!DOCTYPE svg PUBLIC "-//W3C//DTD SVG 1.1//EN" "http://www.w3.org/Graphics/SVG/1.1/DTD/svg11.dtd">
<!-- Creator: CorelDRAW 2019 (64-Bit) -->
<svg xmlns="http://www.w3.org/2000/svg" xml:space="preserve" width="8.5in" height="11in" version="1.1" style="shape-rendering:geometricPrecision; text-rendering:geometricPrecision; image-rendering:optimizeQuality; fill-rule:evenodd; clip-rule:evenodd"
viewBox="0 0 8500 11000"
 xmlns:xlink="http://www.w3.org/1999/xlink"
 xmlns:xodm="http://www.corel.com/coreldraw/odm/2003">
 <defs>
  <style type="text/css">
   <![CDATA[
    .fil0 {fill:#3341a0}
   ]]>
  </style>
 </defs>
 <g id="Layer_x0020_1">
  <metadata id="CorelCorpID_0Corel-Layer"/>
  <path class="fil0" d="M4768.75 3681.5c18.67,-16.14 34.07,-28.13 40.05,-39.8 5.98,-11.67 -6.46,-20.77 -34.57,4.98 -37.8,34.63 -165.91,109.07 -199.76,122.91 -167.7,90.72 -459.33,97.31 -649.7,0 -42.08,-21.51 -174.53,-96.56 -199.76,-122.91 -26.74,-27.94 -40.55,-16.64 -34.57,-4.98 5.98,11.66 20.33,24.96 40.05,39.8 109.35,82.25 149.8,101.51 232.62,142.34 82.82,40.82 189.79,57.13 189.79,57.13 55.96,11.83 79.85,-1.97 88.72,5.86 -0.29,9.91 -23.77,25.66 -23.92,34.99 -0.15,9.33 24.79,12.83 23.48,24.93 -1.31,12.1 -21.73,24.06 -20.85,33.54 0.87,9.48 13.7,17.64 15.45,21.58 1.75,3.94 -4.81,9.3 -4.81,9.3l-340.09 167.18c0,0 -25.66,18.37 -54.24,-3.79 -28.58,-22.17 -191.01,-142.9 -191.01,-142.9 0,0 -23.33,-18.37 -39.37,7 -16.04,25.37 -50.74,96.23 -62.99,145.22 -12.25,48.99 -35.72,145.52 -35.72,145.52 0,0 -2.48,20.12 -24.06,20.56 -21.58,0.44 -184.89,-0.73 -184.89,-0.73 0,0 -66.2,8.75 -74.37,34.41 -8.17,25.66 -7.59,95.94 14.57,141.14 22.16,45.2 75.96,149.9 75.96,149.9 0,0 23.04,29.45 4.08,43.16 -18.95,13.7 -225.12,160.98 -225.12,160.98 0,0 -21,23.33 -35.29,2.62 -14.29,-20.7 -68.24,-118.39 -70.28,-126.85 -2.04,-8.46 -25.09,-154.85 -58.04,-35.29 -32.95,119.56 -60.67,312.33 -60.67,312.33 0,0 -12.25,57.16 32.07,112.56 44.33,55.41 225.71,260.72 315.53,318.46 89.82,57.74 144.64,65.91 163.31,57.16 18.67,-8.75 33.24,-20.41 22.16,-84.57 -11.08,-64.16 -51.31,-256.62 -46.65,-438.59 4.67,-181.96 -9.33,-227.47 46.66,-390.78 55.99,-163.3 43.16,-170.3 141.14,-241.46 97.98,-71.15 303.28,-106.15 303.28,-106.15 0,0 160.97,-26.83 197.13,-8.17 36.16,18.67 43.74,14 63.57,85.74 19.83,71.74 31.5,87.48 31.5,87.48 0,0 12.24,53.65 2.91,61.82 -9.33,8.17 -49.57,51.32 -49.57,51.32 0,0 -14.58,8.75 1.17,33.24 15.75,24.5 41.71,75.53 41.71,75.53 0,0 15.46,14 1.75,46.66 -13.7,32.66 -26.24,60.94 -26.24,60.94 0,0 -4.09,17.5 -20.7,7.29 -16.62,-10.2 -231.25,-91.85 -309.4,-93.02 -78.15,-1.17 -150.48,-6.42 -210.55,35.57 -60.07,42 -110.83,87.2 -131.24,207.93 -20.41,120.73 8.75,81.65 8.75,81.65 0,0 9.18,-32.37 12.24,-49.29 3.06,-16.91 27.85,-108.33 87.92,-144.49 60.07,-36.16 160.97,-48.41 253.13,-33.83 92.15,14.58 200.63,32.65 258.38,85.15 57.74,52.49 71.15,104.98 75.82,104.98 4.67,0 6.28,-27.42 6.28,-27.42 0,0 8.18,-125.68 20.72,-160.09 12.54,-34.41 35.58,-93.03 35.58,-93.03 0,0 8.46,-11.37 -7.58,-32.95 -16.04,-21.58 -41.56,-62.7 -41.56,-62.7 0,0 -5.98,-5.98 0.15,-12.83 6.13,-6.85 47.25,-59.92 47.25,-59.92 0,0 12.55,-12.25 6.43,-29.75 -6.13,-17.5 -32.29,-106.52 -32.29,-106.52 0,0 -18.15,-34.77 51.83,-35.93 10.85,-0.18 20.09,-0.4 27.96,-0.65 7.87,0.25 17.11,0.47 27.96,0.65 69.99,1.17 51.83,35.93 51.83,35.93 0,0 -26.16,89.02 -32.28,106.52 -6.13,17.5 6.43,29.75 6.43,29.75 0,0 41.12,53.07 47.25,59.92 6.13,6.85 0.15,12.83 0.15,12.83 0,0 -25.51,41.12 -41.55,62.7 -16.04,21.58 -7.58,32.95 -7.58,32.95 0,0 23.04,58.61 35.57,93.03 12.54,34.41 20.72,160.09 20.72,160.09 0,0 1.61,27.42 6.28,27.42 4.67,0 18.08,-52.49 75.82,-104.98 57.74,-52.49 166.22,-70.57 258.38,-85.15 92.15,-14.58 193.05,-2.33 253.12,33.83 60.07,36.16 84.86,127.58 87.92,144.49 3.06,16.91 12.25,49.29 12.25,49.29 0,0 29.16,39.07 8.75,-81.65 -20.41,-120.73 -71.17,-165.93 -131.24,-207.93 -60.07,-41.99 -132.4,-36.74 -210.55,-35.57 -78.15,1.17 -292.78,82.82 -309.4,93.02 -16.62,10.2 -20.7,-7.29 -20.7,-7.29 0,0 -12.53,-28.28 -26.24,-60.94 -13.7,-32.66 1.75,-46.66 1.75,-46.66 0,0 25.96,-51.04 41.71,-75.53 15.75,-24.5 1.17,-33.24 1.17,-33.24 0,0 -40.24,-43.16 -49.57,-51.32 -9.33,-8.17 2.92,-61.82 2.92,-61.82 0,0 11.67,-15.75 31.5,-87.48 19.83,-71.74 27.41,-67.07 63.57,-85.74 36.16,-18.67 197.13,8.17 197.13,8.17 0,0 205.3,34.99 303.28,106.15 97.98,71.15 85.15,78.15 141.15,241.46 55.99,163.31 41.99,208.81 46.66,390.78 4.67,181.97 -35.57,374.43 -46.65,438.59 -11.08,64.16 3.5,75.82 22.17,84.57 18.66,8.75 73.49,0.58 163.3,-57.16 89.82,-57.74 271.21,-263.05 315.53,-318.46 44.33,-55.41 32.08,-112.56 32.08,-112.56 0,0 -27.72,-192.76 -60.67,-312.33 -32.95,-119.56 -56,26.83 -58.04,35.29 -2.04,8.46 -55.99,106.15 -70.28,126.85 -14.29,20.7 -35.29,-2.62 -35.29,-2.62 0,0 -206.17,-147.27 -225.12,-160.98 -18.95,-13.71 4.08,-43.16 4.08,-43.16 0,0 53.8,-104.7 75.96,-149.9 22.17,-45.2 22.74,-115.48 14.57,-141.14 -8.17,-25.66 -74.37,-34.41 -74.37,-34.41 0,0 -163.3,1.17 -184.88,0.73 -21.58,-0.44 -24.06,-20.56 -24.06,-20.56 0,0 -23.47,-96.53 -35.72,-145.52 -12.25,-48.99 -46.95,-119.85 -62.99,-145.22 -16.04,-25.37 -39.37,-7 -39.37,-7 0,0 -162.43,120.73 -191.01,142.9 -28.58,22.16 -54.24,3.79 -54.24,3.79l-340.09 -167.18 -1.01 0.14 0.24 -0.14c0,0 -6.56,-5.36 -4.81,-9.3 1.75,-3.94 14.58,-12.1 15.45,-21.58 0.87,-9.48 -19.54,-21.44 -20.85,-33.54 -1.31,-12.1 23.62,-15.6 23.48,-24.93 -0.15,-9.33 -23.63,-25.07 -23.92,-34.99 8.87,-7.83 34.52,4.8 88.72,-5.86 0,0 106.97,-16.31 189.79,-57.13 82.82,-40.83 129.69,-53.34 232.62,-142.34zm633.28 2916.04c12.6,-25.6 100.81,-295.8 25.25,-230.08 -26.83,23.33 -97.68,107.89 -97.68,107.89 0,0 -70.57,90.98 -136.48,131.81 -65.91,40.83 -96.23,68.24 -177.3,85.15 -100.77,14.07 -107.37,29.62 -137.06,184.3 -4.67,85.15 -2.92,398.36 66.48,559.91 69.41,161.56 89.81,191.89 110.81,190.14 21,-1.75 47.24,-3.21 63.86,-177.59 16.62,-174.39 56.57,-415.85 134.72,-551.16 67.07,-82.82 147.4,-300.37 147.4,-300.37zm247.39 -1181.7c-0.22,-4.7 -6.56,-35.35 -17.2,-8.53 -66.55,167.74 -317.14,293.29 -431.44,431.67 -11.08,13.41 -50.23,44.33 -86.09,106.44 -35.87,62.11 -144.79,196.81 -157.62,210.8 -12.83,14 -97.91,107.94 -107.83,115.96 -9.91,8.02 -40.31,42.45 -10.93,75.09 18.11,20.11 56.86,53.07 154.55,35 97.69,-18.08 274.12,-176.14 274.12,-176.14 0,0 119.55,-121.89 139.38,-152.81 19.83,-30.91 35.57,-51.32 42.87,-54.82 7.29,-3.5 25.37,-13.63 29.6,3.43 4.23,17.06 5.4,23.18 5.25,29.16 -0.15,5.98 -0.44,25.95 8.89,16.33 9.33,-9.62 37.33,-59.34 37.33,-59.34 92.39,-187.6 138.17,-363.28 119.12,-572.23zm-389.94 -1997.61c0,0 -2.33,408.26 -7,471.25 -4.67,62.99 -2.33,137.06 -15.75,135.89 -13.41,-1.17 -49.57,-90.4 -49.57,-90.4 0,0 -92.73,-216.38 -117.81,-254.29 -25.08,-37.91 -32.66,-58.91 -65.91,-41.41 -33.24,17.5 -111.4,105.56 -111.4,105.56 0,0 -95.65,85.74 -119.56,85.15 -23.91,-0.58 1.75,-41.99 1.75,-41.99 0,0 65.31,-127.94 222.2,-273.54 156.89,-145.59 208.22,-138.81 208.22,-138.81 0,0 60.65,-17.49 54.83,42.59zm222.22 998.49c0,0 -48.41,158.64 -64.15,186.64 -15.75,27.99 -41.41,64.15 -51.91,57.15 -10.5,-7 -11.08,-27.41 -4.67,-95.07 6.42,-67.65 -14.59,-296.87 -28.59,-359.85 -14,-62.99 -10.5,-184.3 -10.5,-184.3 0,0 2.33,-46.66 23.91,-5.83 21.58,40.83 82.24,190.13 82.24,190.13 0,0 60.66,144.06 60.07,153.98 -0.58,9.91 5.25,26.24 -6.41,57.15zm-513.95 1081.2c0,0 9.33,1.75 9.19,9.63 -0.15,7.87 -0.58,44.62 -0.58,44.62 0,0 -11.22,50.59 -52.34,101.92 -41.12,51.32 -75.82,81.66 -100.61,93.32 -24.79,11.66 -35.28,11.08 -26.24,-2.33 9.04,-13.41 68.24,-114.62 64.45,-200.06 -3.8,-85.44 -25.67,-108.48 -25.67,-108.48 0,0 -9.92,-12.1 7.58,-19.54 17.5,-7.44 118.38,-91.57 137.63,-132.4 19.24,-40.82 31.49,-48.99 36.74,-27.41 5.25,21.58 5.25,87.48 -2.92,104.4 -8.17,16.91 -32.08,60.07 -59.49,72.32 -27.41,12.25 -80.19,21.73 -80.05,30.77 0.15,9.04 19.82,35.58 92.31,33.26zm-282.56 -1069.94c0,0 2.04,-5.83 -15.17,-18.96 -17.2,-13.12 -81.07,-65.61 -81.07,-65.61 0,0 -12.83,-15.16 -32.66,-0.29 -19.83,14.87 -91.57,70.57 -91.57,70.57 0,0 -17.5,8.46 -3.21,22.75 14.29,14.29 94.48,93.9 94.48,93.9 0,0 21,19.25 37.62,0.59 16.62,-18.67 85.74,-89.82 85.74,-89.82 0,0 4.96,-3.79 5.83,-13.13zm-1587.2 2169.56c-12.6,-25.6 -100.82,-295.8 -25.26,-230.08 26.83,23.33 97.68,107.89 97.68,107.89 0,0 70.57,90.98 136.48,131.81 65.91,40.83 96.24,68.24 177.3,85.15 100.77,14.07 107.37,29.62 137.06,184.3 4.67,85.15 2.93,398.36 -66.48,559.91 -69.4,161.56 -89.81,191.89 -110.8,190.14 -21,-1.75 -47.24,-3.21 -63.87,-177.59 -16.62,-174.39 -56.57,-415.85 -134.72,-551.16 -67.07,-82.82 -147.4,-300.37 -147.4,-300.37zm-247.39 -1181.7c0.22,-4.7 6.56,-35.35 17.2,-8.53 66.55,167.74 317.15,293.29 431.45,431.67 11.08,13.41 50.22,44.33 86.09,106.44 35.87,62.11 144.78,196.81 157.62,210.8 12.83,14 97.91,107.94 107.82,115.96 9.92,8.02 40.31,42.45 10.93,75.09 -18.11,20.11 -56.86,53.07 -154.55,35 -97.69,-18.08 -274.13,-176.14 -274.13,-176.14 0,0 -119.55,-121.89 -139.38,-152.81 -19.83,-30.91 -35.57,-51.32 -42.87,-54.82 -7.29,-3.5 -25.37,-13.63 -29.6,3.43 -4.22,17.06 -5.39,23.18 -5.25,29.16 0.15,5.98 0.44,25.95 -8.89,16.33 -9.33,-9.62 -37.33,-59.34 -37.33,-59.34 -92.39,-187.6 -138.17,-363.28 -119.12,-572.23zm389.94 -1997.61c0,0 2.33,408.26 7,471.25 4.67,62.99 2.33,137.06 15.75,135.89 13.41,-1.17 49.57,-90.4 49.57,-90.4 0,0 92.74,-216.38 117.81,-254.29 25.08,-37.91 32.66,-58.91 65.91,-41.41 33.24,17.5 111.39,105.56 111.39,105.56 0,0 95.65,85.74 119.56,85.15 23.91,-0.58 -1.75,-41.99 -1.75,-41.99 0,0 -65.31,-127.94 -222.2,-273.54 -156.89,-145.59 -208.22,-138.81 -208.22,-138.81 0,0 -60.65,-17.49 -54.83,42.59zm-222.22 998.49c0,0 48.41,158.64 64.16,186.64 15.75,27.99 41.41,64.15 51.91,57.15 10.5,-7 11.08,-27.41 4.67,-95.07 -6.42,-67.65 14.59,-296.87 28.58,-359.85 14,-62.99 10.5,-184.3 10.5,-184.3 0,0 -2.33,-46.66 -23.91,-5.83 -21.58,40.83 -82.24,190.13 -82.24,190.13 0,0 -60.66,144.06 -60.07,153.98 0.59,9.91 -5.25,26.24 6.41,57.15zm513.96 1081.2c0,0 -9.33,1.75 -9.19,9.63 0.15,7.87 0.58,44.62 0.58,44.62 0,0 11.22,50.59 52.34,101.92 41.12,51.32 75.82,81.66 100.61,93.32 24.79,11.66 35.28,11.08 26.24,-2.33 -9.04,-13.41 -68.24,-114.62 -64.45,-200.06 3.79,-85.44 25.67,-108.48 25.67,-108.48 0,0 9.91,-12.1 -7.58,-19.54 -17.49,-7.44 -118.38,-91.57 -137.63,-132.4 -19.24,-40.82 -31.5,-48.99 -36.74,-27.41 -5.25,21.58 -5.25,87.48 2.92,104.4 8.17,16.91 32.08,60.07 59.49,72.32 27.41,12.25 80.2,21.73 80.05,30.77 -0.15,9.04 -19.83,35.58 -92.31,33.26zm282.56 -1069.94c0,0 -2.04,-5.83 15.16,-18.96 17.2,-13.12 81.07,-65.61 81.07,-65.61 0,0 12.83,-15.16 32.66,-0.29 19.83,14.87 91.57,70.57 91.57,70.57 0,0 17.5,8.46 3.2,22.75 -14.29,14.29 -94.48,93.9 -94.48,93.9 0,0 -21,19.25 -37.62,0.59 -16.62,-18.67 -85.73,-89.82 -85.73,-89.82 0,0 -4.96,-3.79 -5.83,-13.13z"/>
 </g>
</svg>
