<?xml version="1.0" encoding="UTF-8"?>
<!DOCTYPE svg PUBLIC "-//W3C//DTD SVG 1.1//EN" "http://www.w3.org/Graphics/SVG/1.1/DTD/svg11.dtd">
<!-- Creator: CorelDRAW 2019 (64-Bit) -->
<svg xmlns="http://www.w3.org/2000/svg" xml:space="preserve" width="7.86974in" height="7.6988in" version="1.1" style="shape-rendering:geometricPrecision; text-rendering:geometricPrecision; image-rendering:optimizeQuality; fill-rule:evenodd; clip-rule:evenodd"
viewBox="0 0 7869.74 7698.8"
 xmlns:xlink="http://www.w3.org/1999/xlink"
 xmlns:xodm="http://www.corel.com/coreldraw/odm/2003">
 <defs>
  <style type="text/css">
   <![CDATA[
    .fil0 {fill:#000}
   ]]>
  </style>
  <mask id="ahsoka-mask">
    <path fill="white" d="M3615.52 7697.8l699.98 0c46,-27 135,-22 194,-24 -14,-90 -287.99,-502.99 -230.99,-1047.97 132,-26 82,-76 243.99,-38 81,19 166,48 245.99,63 313.99,58 299.99,-131 454.99,-128 4,72 -95,193 -136,258.99 -146,230.99 -321.99,596.98 -343.99,860.98 404.99,-43 856.98,-211 1185.97,-365.99 311.99,-147 668.98,-406.99 903.98,-652.98 423.99,-444.99 678.98,-871.98 882.98,-1451.96 51,-144 136,-490.99 130,-642.98 -41,46 -106,241.99 -146,320.99 -47,93 -102,200 -152,293.99 -82,155 -284.99,438.99 -404.99,489.99 76,-83 192,-278.99 249.99,-380.99 536.98,-948.98 661.98,-2186.94 157,-3179.92 -18,-35 -34,-67 -52,-101 -13,-25 -15,-31 -29,-50l-29 -35c-2,-7 -6,-7 -10,-11 42,312.99 135,342.99 113,810.98 -12,257.99 -73,505.99 -154,743.98 -103,300.99 -431.99,929.98 -713.98,1099.97l266.99 -521.99c76,-162 149,-390.99 193,-584.98 294.99,-1303.96 -200,-2350.94 -1146.97,-3183.92l-126 -88c46,79 108,147 155,233.99 140,258.99 224,542.98 236.99,842.98 14,320.99 -9,640.98 -128,940.98 -25,62 -77,206 -136,226 -14,-88 -29,-222 -96,-280.99 -17,32 -13,100 -14,143 -5,305.99 -213,600.98 -218,811.98 217,-40 321.99,-323.99 352.99,-501.99 19,12 29,56 36,86 60,287.99 170,481.99 -14,773.98 -73,115 -166,200 -278.99,275.99 -74,50 -273.99,173 -351.99,168l3 -222c-161,-146 -73,-178 -231.99,-222 -135,-37 -262.99,-31 -396.99,3 -216,55 -461.99,194 -690.98,184 -89,-154 -166,-364.99 -129,-545.98 15,-74 41,-114 52,-174 -41,-81 -76,-132 -81,-225 -5,-87 64,-165 21,-239.99l-57 -6c-13,81 3,213 -2,304.99 -6,118 -49,155 -68,240.99 2,30 144,276.99 -7,531.98 -118,198 -243.99,111 -415.99,38 -167,-70 -610.98,-232.99 -793.98,-140 -46,24 -55,48 -78,92 -26,49 -43,42 -83,66 -8,99 23,195 -28,267.99 -201,-34 -578.98,-407.99 -657.98,-703.98 -75,-279.99 39,-340.99 80,-560.98 50,-268.99 -34,-317.99 -110,-531.98 -133,-373.99 -164,-770.98 -69,-1168.97 41,-172 117,-333.99 212,-473.99 90,-132 214,-244.99 286.99,-385.99 -52,47 -76,47 -122,93 -40,40 -73,64 -111,97 -520.99,456.99 -961.98,1026.97 -1158.97,1701.96 -125,429.99 -160,1016.97 -48,1465.96 54,217 119,413.99 202,615.98 66,162 205,404.99 247.99,555.98 -85,-54 -312.99,-398.99 -392.99,-520.99 -262.99,-398.99 -454.99,-878.98 -460.99,-1366.96 -2,-173 7,-264.99 45,-421.99 22,-93 79,-291.99 81,-377.99 -135,154 -286.99,694.98 -353.99,908.98 -155,496.99 -89,1155.97 47,1651.96 43,158 99,306.99 164,456.99 65,151 127,272.99 206,419.99 61,115 189,271.99 231.99,372.99 -244.99,-105 -598.98,-905.98 -725.98,-1139.97 -10,111 109,491.99 152,623.98 292.99,891.98 886.98,1682.96 1741.96,2110.94 321.99,162 794.98,342.99 1163.97,373.99 -10,-169 -80,-418.99 -141,-567.98 -161,-396.99 -353.99,-327.99 -243.99,-543.98 47,56 53,114 97,152 14,-22 9,-2 16,-33l11 -194c210,34 375.99,289.99 679.98,112 88,94 97,506.99 81,603.98 -59,344.99 -142,407.99 -168,521.99 66,4 162,-2 212,26l0.99 -1zm-957.98 -2258.94c77,30 195,66 277.99,76 455.99,52 298.99,-31 364.99,167 28,86 100,320.99 73,386.99 -97,107 -316.99,101 -448.99,48 -103,-41 -314.99,-173 -400.99,-189l-8 266.99c-47,-27 -15,10 -71,-97 -164,-313.99 -285.99,-502.99 -262.99,-932.98 54,16 167,112 230.99,152 78,48 156,87 243.99,122l1 0zm1949.95 99c215,-26 432.99,-21 641.98,-80 87,-25 196,-57 270.99,-92 45,-22 200,-116 232.99,-122 -12,129 -258.99,761.98 -332.99,869.98 -146,213 -561.98,59 -717.98,38 -125,-16 -149,-3 -260.99,1 -1,-116 111,-530.98 167,-613.98l-1 -1zm-16 -992.98c76,-56 163,-122 240.99,-186 129,-104 166,-194 201,-209 141,165 -61,394.99 -132,412.99 27,58 23,51 76,79 8,148 -198,510.99 -384.99,526.99 59,-235.99 155,-397.99 0,-623.98l-1 0zm-1360.96 -46c9,48 -29,91 -39,147 -11,60 -11,129 -8,190 7,139 43,213 57,332.99 -205,-44 -370.99,-383.99 -370.99,-527.99 52,-50 43,-23 101,-48 -134,-95 -236.99,-259.99 -188,-438.99 79,12 166,129 222,183 33,33 62,65 101,93 46,33 90,43 125,68l0 1zm2116.94 -210c31,-23 355.99,-136 609.98,-305.99 114,-76 131,-122 178,-102 49,141 -50,453.99 -125,569.98 -200,314.99 -497.99,455.99 -812.98,619.98l-450.99 244.99c14,-50 321.99,-355.99 383.99,-423.99 190,-210 181,-443.99 216,-602.98l1 0zm-2452.94 879.98c-255.99,-179 -605.98,-417.99 -805.98,-647.98l-259.99 -307.99c-33,39 -19,18 -23,77 -58,-121 -113,-456.99 -105,-577.98 103,42 455.99,337.99 622.98,420.99 61,30 159,77 202,122 12,533.98 549.98,911.98 557.98,1004.97 -79,-34 -109,-35 -188,-91l-1 0z"/>
    <path fill="white" d="M4477.49 2425.93c111,35 227,151 233.99,283.99 -84,32 -137,31 -222,85 -62,40 -111,107 -168,125 -72,-120 -42,-150 -145,-264.99l300.99 -228.99 0 0zm-285.99 -137c-57,80 -115,219 -123,324.99 -14,191 10,207 78,362.99 -59,88 -201,245.99 -58,416.99 137,-14 381.99,-211 763.98,-237.99 199,-14 248.99,-21 389.99,114 190,183 99,294.99 166,325.99 37,-80 -2,-499.99 -26,-605.98 -144,-612.98 -551.98,-864.98 -1190.97,-700.98l0 -0z"/>
    <path fill="white" d="M3121.53 2683.93c5,-95 213,-282.99 218,-283.99 70,-13 136,132 315.99,216 -4,46 -34,88 -60,128 -47,74 -32,60 -53,142 -72,2 -140,-73 -200,-108 -175,-102 -120,-54 -221,-95l0 1zm559.99 264.99c184,-120 74,-485.99 -14,-646.98 -64,-118 -491.99,-103 -689.98,-10 -185,87 -342.99,277.99 -414.99,450.99 -73,176 -146,540.98 -96,729.98 30,-39 58,-424.99 603.98,-321.99 152,28 397.99,104 534.98,178 51,27 102,60 158,65 21,-83 65,-160 31,-257.99 -30,-89 -90,-131 -113,-187l-0 0z"/>
    <path fill="white" d="M2328.55 1689.95c75,-97 194,-518.99 265.99,-636.98 144,0 331.99,211 514.99,259.99 -15,-80 -149,-176 -138,-316.99 105,7 163,89 236.99,100 -24,-44 -231.99,-253.99 -283.99,-296.99 -76,-64 -386.99,-197 -447.99,-70 -53,110 -29,329.99 -100,498.99 -27,65 -60,132 -81,207 -21,73 -41,189 22,247.99 2,2 7,5 10,7l1 0z"/>
    <path fill="white" d="M3488.52 2146.94c176,28 271.99,102 424.99,173 202,-107 250.99,-97 415.99,-146 -20,-132 -336.99,-390.99 -462.99,-438.99l-206 187c-52,48 -165,158 -172,225l0 -0z"/>
    <path fill="white" d="M4693.49 1078.97c73,-18 88,0 168,-38 47,-23 101,-59 155,-60 21,130 -36,214 -3,333.99 122,-32 191,-234.99 310.99,-288.99 60,40 193,385.99 239.99,483.99 15,31 28,57 43,88 9,18 8,19 18,33l39 46c-25,-300.99 -273.99,-667.98 -321.99,-990.97 -213,-51 -399.99,111 -534.98,243.99 -22,21 -41,41 -63,62 -46,43 -51,31 -52,86l1 1z"/>
    <path fill="white" d="M2262.55 2872.92c-8,-67 -62,-199 -84,-272.99 -61,-202 -84,-426.99 -70,-638.98 6,-104 55,-209 48,-303.99 -110,82 -222,500.99 -234.99,651.98 -21,237.99 71,544.98 341.99,563.98l-1 0z"/>
    <path fill="white" d="M2395.55 3671.9c5,-64 -8,-75 0,-142 15,-122 2,-380.99 17,-440.99 -77,8 -147,92 -207,142 -68,57 -149,90 -164,181 57,51 294.99,256.99 353.99,260.99l0 -1z"/>
    <path fill="white" d="M2865.54 2299.94c23,-5 124,-59 243.99,-95 77,-23 214,-30 262.99,-74 -7,-11 -251.99,-289.99 -310.99,-316.99 -56,79 -175,381.99 -195,485.99l-1 0z"/>
    <path fill="white" d="M4587.49 2137.94c53,56 90,4 307.99,102 93,42 160,103 245.99,149 -7,-129 -138,-368.99 -190,-483.99 -93,19 -282.99,169 -363.99,231.99l0 1z"/>
    <path fill="white" d="M5467.47 3256.91c2,84 10,155 17,234.99 6,72 0,162 1,236.99 28,-5 356.99,-173 353.99,-309.99 -99,-54 -258.99,-153 -372.99,-161l1 -1z"/>
    <path fill="white" d="M2488.55 2874.92c65,-281.99 148,-290.99 186,-421.99 -94,-21 -298.99,-72 -385.99,-66 1,64 19,66 41,126 37,101 44,316.99 158,361.99l1 0z"/>
    <path fill="white" d="M5293.47 2623.93c15,63 54,110 77,185 15,51 43,153 65,193 67,-4 57,-38 135,-171 38,-65 94,-147 103,-218 -138,6 -235.99,-6 -379.99,10l0 1z"/>
  </mask>
 </defs>
 <rect id="ahsoka" x="0" y="0" width="7869.74" height="7698.8" mask="url(#ahsoka-mask)" />
</svg>
